<?xml version="1.0" ?><!DOCTYPE svg  PUBLIC '-//W3C//DTD SVG 1.1//EN'  'http://www.w3.org/Graphics/SVG/1.1/DTD/svg11.dtd'><svg enable-background="new 0 0 128 128" height="64px" id="Layer_1" fill= "white" version="1.1" viewBox="0 0 128 128" width="64px" xml:space="preserve" xmlns="http://www.w3.org/2000/svg" xmlns:xlink="http://www.w3.org/1999/xlink"><g><g><path d="M104.028,104.319c-0.131,5.539-3.612,11.78-9.829,11.78c-1.38,0-2.761,0-4.142,0c-7.14,0-14.28,0-21.42,0    c-7.141,0-14.281,0-21.421,0c-1.38,0-2.761,0-4.142,0c-6.217,0-9.697-6.241-9.829-11.78c-0.241-10.131,0-20.298,0-30.431    c0-14.362,0-28.724,0-43.086c0-5.399-0.168-11.051,4.683-14.738c3.665-2.787,10.157-1.729,14.463-1.729c13.65,0,27.299,0,40.949,0    c7.119,0,10.687,6.146,10.687,12.695c0,4.575,0,9.149,0,13.724c0,15.627,0,31.255,0,46.882    C104.028,93.197,104.028,98.758,104.028,104.319c0,1.935,3,1.935,3,0c0-24.506,0-49.011,0-73.517c0-4.975,0.09-9.708-2.906-14.061    c-2.273-3.302-6.033-5.407-10.055-5.407c-1.637,0-3.274,0-4.912,0c-14.255,0-28.51,0-42.765,0c-1.327,0-2.656-0.022-3.983,0.021    c-5.039,0.165-9.335,4.156-11.034,8.703c-1.475,3.948-1.127,8.227-1.127,12.367c0,14.789,0,29.577,0,44.366    c0,6.776,0,13.553,0,20.33c0,3.7-0.306,7.606,0.485,11.244c1.091,5.018,4.995,9.329,10.024,10.495    c1.568,0.363,3.288,0.239,4.889,0.239c6.669,0,13.339,0,20.008,0c8.41,0,16.821,0,25.231,0c2.103,0,4.179,0.098,6.245-0.381    c6.395-1.483,9.755-8.36,9.899-14.399C107.074,102.383,104.074,102.388,104.028,104.319z"/></g></g><g><g><path d="M91.849,80.859c-0.169,12.116-9.51,22.144-21.639,22.992c-12.041,0.842-22.772-8.375-24.269-20.228    c-1.513-11.991,6.874-22.921,18.497-25.383c11.903-2.521,23.604,5.458,26.702,16.928C91.643,77.028,91.822,78.939,91.849,80.859    c0.027,1.933,3.027,1.936,3,0c-0.153-10.956-6.829-20.435-17.003-24.417c-10.265-4.017-22.241-0.402-29.171,7.941    c-7.019,8.448-7.647,20.63-2.109,29.988c5.594,9.453,16.81,13.944,27.43,12c12.127-2.22,20.686-13.446,20.854-25.512    C94.875,78.924,91.875,78.926,91.849,80.859z"/></g></g><g><g><path d="M76.678,80.859c-0.162,4.409-3.453,7.699-7.861,7.861c-4.405,0.162-7.707-3.699-7.86-7.861    c-0.162-4.405,3.697-7.708,7.86-7.861C73.223,72.836,76.525,76.696,76.678,80.859c0.071,1.929,3.071,1.936,3,0    c-0.223-6.071-4.791-10.638-10.861-10.861c-6.066-0.223-10.649,5.126-10.86,10.861c-0.223,6.065,5.125,10.65,10.86,10.861    c6.066,0.223,10.65-5.125,10.861-10.861C79.75,78.924,76.749,78.931,76.678,80.859z"/></g></g><g><g><path d="M79.772,34.157c-0.167,6.196-4.939,10.967-11.135,11.134c-6.195,0.167-10.974-5.19-11.134-11.134    c-0.167-6.195,5.19-10.974,11.134-11.134C74.832,22.856,79.612,28.213,79.772,34.157c0.052,1.931,3.052,1.936,3,0    c-0.211-7.848-6.287-13.922-14.135-14.134c-7.846-0.211-13.931,6.604-14.134,14.134c-0.211,7.846,6.605,13.931,14.134,14.134    c7.846,0.211,13.932-6.604,14.135-14.134C82.824,32.222,79.824,32.227,79.772,34.157z"/></g></g><g><g><path d="M71.958,34.157c-0.23,4.282-6.412,4.282-6.643,0C65.085,29.873,71.729,29.896,71.958,34.157c0.104,1.924,3.104,1.934,3,0    c-0.192-3.574-2.748-6.128-6.322-6.321c-3.566-0.192-6.144,3.037-6.321,6.321c-0.192,3.565,3.037,6.145,6.321,6.321    c3.566,0.192,6.145-3.037,6.322-6.321C75.063,32.223,72.062,32.233,71.958,34.157z"/></g></g></svg>